<svg width="601" height="302" viewBox="0 0 601 302" fill="none" xmlns="http://www.w3.org/2000/svg">
<path d="M152.25 105.7C149.592 105.7 147.537 104.442 146.087 101.925C144.637 99.4083 144.637 96.8917 146.087 94.375L188.5 17.7425C190.433 14.4708 192.85 12.5179 195.75 11.8837C198.65 11.2596 201.792 11.8283 205.175 13.59C221.85 21.3917 236.592 32.2737 249.4 46.2362C262.208 60.2087 272.117 76.0033 279.125 93.62C280.333 96.8917 280.15 99.7204 278.574 102.106C277.008 104.502 274.533 105.7 271.15 105.7H152.25ZM100.413 124.198L56.9125 45.6775C54.9792 42.4058 54.4958 39.1342 55.4625 35.8625C56.4292 32.5908 58.3625 29.9483 61.2625 27.935C72.8625 19.3783 85.7337 12.5833 99.876 7.55C114.009 2.51667 129.05 0 145 0C148.625 0 152.612 0.186232 156.962 0.558699C161.312 0.941232 164.937 1.38417 167.837 1.8875C171.221 2.39083 173.459 3.90083 174.551 6.4175C175.634 8.93417 175.329 11.7025 173.638 14.7225L113.1 124.198C111.65 126.714 109.538 127.973 106.763 127.973C103.979 127.973 101.863 126.714 100.413 124.198ZM12.325 181.2C9.66667 181.2 7.25 180.254 5.075 178.361C2.9 176.479 1.57083 174.153 1.0875 171.385C0.604167 168.617 0.3045 165.597 0.1885 162.325C0.0628335 159.053 0 155.278 0 151C0 135.145 2.4795 119.355 7.4385 103.631C12.3878 87.8971 20.0583 72.9833 30.45 58.89C33.1083 55.3667 36.192 53.605 39.701 53.605C43.2003 53.605 45.9167 55.4925 47.85 59.2675L108.75 169.875C110.2 172.392 110.142 174.908 108.576 177.425C107 179.942 104.883 181.2 102.225 181.2H12.325ZM84.825 288.41C68.875 280.357 54.2542 269.409 40.9625 255.567C27.6708 241.726 17.6417 225.997 10.875 208.38C9.66667 205.108 9.90833 202.28 11.6 199.894C13.2917 197.498 15.8292 196.3 19.2125 196.3H137.388C140.046 196.3 142.1 197.558 143.55 200.075C145 202.592 145 205.108 143.55 207.625L101.862 283.503C99.9292 286.774 97.5125 288.913 94.6125 289.92C91.7125 290.927 88.45 290.423 84.825 288.41ZM145 302C141.617 302 137.813 301.809 133.589 301.426C129.355 301.054 125.667 300.616 122.525 300.113C119.142 299.609 116.846 298.099 115.638 295.583C114.429 293.066 114.671 290.298 116.362 287.278L176.175 178.558C177.625 176.041 180.042 174.783 183.425 174.783C186.808 174.783 189.225 176.041 190.675 178.558L233.45 255.945C235.142 258.713 235.688 261.733 235.088 265.005C234.479 268.277 232.483 271.297 229.1 274.065C217.983 282.622 204.996 289.417 190.138 294.45C175.271 299.483 160.225 302 145 302ZM243.237 243.488L181.612 132.125C180.162 129.608 180.225 127.092 181.801 124.575C183.367 122.058 185.479 120.8 188.138 120.8H277.675C280.333 120.8 282.75 121.746 284.925 123.639C287.1 125.521 288.429 127.847 288.912 130.615C289.396 133.383 289.7 136.403 289.826 139.675C289.942 142.947 290 146.722 290 151C290 166.855 287.525 182.77 282.576 198.746C277.617 214.732 269.942 229.646 259.55 243.488C257.617 246.256 254.838 247.705 251.213 247.836C247.588 247.957 244.929 246.508 243.237 243.488Z" fill="#90A4D4" fill-opacity="0.87"/>
<path d="M326.682 110.182L343.557 163.227H344.205L361.114 110.182H377.477L353.409 180H334.386L310.284 110.182H326.682ZM385.881 180V110.182H432.926V122.352H400.642V138.989H430.506V151.159H400.642V167.83H433.062V180H385.881ZM444.662 180V110.182H459.423V167.83H489.355V180H444.662ZM560.571 145.091C560.571 152.705 559.128 159.182 556.241 164.523C553.378 169.864 549.469 173.943 544.514 176.761C539.582 179.557 534.037 180.955 527.878 180.955C521.673 180.955 516.105 179.545 511.173 176.727C506.241 173.909 502.344 169.83 499.48 164.489C496.616 159.148 495.185 152.682 495.185 145.091C495.185 137.477 496.616 131 499.48 125.659C502.344 120.318 506.241 116.25 511.173 113.455C516.105 110.636 521.673 109.227 527.878 109.227C534.037 109.227 539.582 110.636 544.514 113.455C549.469 116.25 553.378 120.318 556.241 125.659C559.128 131 560.571 137.477 560.571 145.091ZM545.605 145.091C545.605 140.159 544.866 136 543.389 132.614C541.935 129.227 539.878 126.659 537.219 124.909C534.56 123.159 531.446 122.284 527.878 122.284C524.31 122.284 521.196 123.159 518.537 124.909C515.878 126.659 513.81 129.227 512.332 132.614C510.878 136 510.151 140.159 510.151 145.091C510.151 150.023 510.878 154.182 512.332 157.568C513.81 160.955 515.878 163.523 518.537 165.273C521.196 167.023 524.31 167.898 527.878 167.898C531.446 167.898 534.56 167.023 537.219 165.273C539.878 163.523 541.935 160.955 543.389 157.568C544.866 154.182 545.605 150.023 545.605 145.091Z" fill="#121212"/>
</svg>
